<svg width="422" height="129" viewBox="0 0 422 129" fill="none" xmlns="http://www.w3.org/2000/svg">
<g clip-path="url(#clip0_1_3)">
<path d="M25.328 75.0307C25.3815 75.4987 25.1943 75.7661 24.7798 75.8464C24.3652 75.9266 23.817 75.833 23.1484 75.5789C22.4798 75.3249 21.9449 75.0976 21.5571 74.9237C21.1693 74.7365 20.7949 74.5493 20.4338 74.3354C18.9763 73.5598 17.6925 72.5836 16.5425 71.4203C15.4059 70.2569 14.8309 69.3878 14.8309 68.8128C14.7239 66.5797 14.5902 63.2233 14.403 58.7438C14.2158 54.2642 14.0821 50.9079 13.9751 48.6748C13.9216 48.4207 13.9216 48.2335 13.9751 48.1265L12.9588 20.9148C12.7449 21.0218 12.5443 21.1421 12.3303 21.2625C12.1164 21.3962 11.9425 21.5165 11.7821 21.6502C11.6216 21.784 11.4478 21.9043 11.2338 22.038C11.0199 22.1717 10.8193 22.3055 10.6053 22.4659C10.1908 22.7735 9.44195 22.7735 8.34543 22.4659C7.3559 22.1584 6.03206 21.4497 4.38729 20.3665C2.92973 19.377 1.81984 18.3741 1.04426 17.3311C0.161701 16.1945 -0.0923667 15.4591 0.26868 15.1515C0.429145 15.0445 0.549496 14.9643 0.656472 14.9242C2.20764 13.8946 4.32043 12.437 6.99485 10.565C9.66927 8.69292 12.103 7.00807 14.296 5.47031C16.5024 3.94591 18.5885 2.50176 20.5542 1.1512C21.0222 0.843644 21.771 0.843644 22.8141 1.1512C23.8571 1.45875 25.1943 2.16746 26.8524 3.25058C28.2565 4.2401 29.3664 5.24299 30.1955 6.28599C31.078 7.4226 31.3053 8.13131 30.8908 8.38537C28.1495 10.351 25.3949 12.2766 22.6536 14.1353C22.8542 14.4428 22.9611 14.737 22.9611 14.9911C23.2152 20.5939 23.5629 28.978 23.9774 40.1703C34.1402 31.5187 42.7117 21.931 49.7054 11.4074C49.9594 10.9929 50.7216 10.9929 51.9652 11.4074C52.9949 11.6615 54.3187 12.3702 55.9234 13.5068C57.3676 14.4963 58.5176 15.4992 59.3466 16.5422C60.1222 17.5317 60.3629 18.227 60.042 18.6416C54.9071 26.4106 48.8495 33.725 41.8559 40.558C42.8455 40.8656 43.7949 41.2266 44.7309 41.6412C46.8571 42.5772 48.7961 43.7004 50.5612 45.0242C52.3263 46.3481 53.8775 47.9928 55.228 49.9585C56.5786 51.9241 57.3542 53.9968 57.5548 56.1764C57.6618 57.2194 57.5815 60.0141 57.3275 64.5739C57.274 65.5634 57.1937 67.0611 57.1001 69.0802C56.9932 71.0994 56.9129 72.597 56.8728 73.5865L55.8565 92.2403C55.8565 92.4943 55.803 92.6949 55.6961 92.8286C55.5891 92.9624 55.4286 93.0292 55.1879 93.056C54.9606 93.0827 54.7199 93.0827 54.4926 93.056C54.2652 93.0292 53.9844 92.9624 53.6769 92.8554C53.3693 92.7484 53.0885 92.6414 52.8612 92.5478C52.6339 92.4408 52.353 92.3205 52.0455 92.16C51.7379 91.9996 51.524 91.906 51.4304 91.8525C51.3234 91.799 51.1763 91.7188 50.9623 91.6252C49.5048 90.7961 48.2211 89.8066 47.0711 88.67C45.8809 87.4799 45.3059 86.5974 45.3594 86.0224C45.4664 84.0032 45.6135 80.9411 45.8274 76.8493C46.028 72.7575 46.1885 69.6953 46.2955 67.6762C46.349 66.5931 46.4559 64.9483 46.603 62.742C46.7635 60.5356 46.8705 58.5699 46.9507 56.8316C47.0309 55.0933 47.0711 53.4218 47.0711 51.8171C47.0711 50.5201 46.9641 49.3835 46.7635 48.394C46.6565 47.9794 46.5763 47.6719 46.5362 47.4579H46.4559H46.3757C45.9612 47.351 45.5199 47.2975 45.0519 47.2975C44.1693 47.1905 43.3402 47.1637 42.5647 47.2172C40.5455 47.3242 38.4728 47.7387 36.3466 48.4608C33.3379 49.5038 29.4065 51.6968 24.5257 55.0665C24.753 59.7467 25.0204 66.3791 25.328 75.0307ZM48.2612 47.9794L48.1809 47.8992H48.2612V47.9794Z" fill="#F33F3F"/>
<path d="M118.532 59.8804C119.936 61.124 120.711 62.1803 120.858 63.0629C120.965 63.4774 120.778 63.7181 120.31 63.7582C118.438 64.0123 116.553 63.9855 114.64 63.678C110.856 63.678 107.593 63.7315 104.852 63.8385C94.5955 64.253 85.9839 65.9378 79.0437 68.893C74.9519 70.6046 71.7158 72.8511 69.3222 75.6592C68.1856 78.4004 66.9955 81.0748 65.7519 83.6689C65.2839 84.6584 63.4519 84.1102 60.2292 82.0376C59.0391 81.262 57.9693 80.4329 57.0466 79.5504C55.803 78.3603 55.228 77.5045 55.335 76.983C55.6961 73.8673 56.8862 71.0726 58.9054 68.5855C59.7879 66.3524 60.5902 64.1861 61.3123 62.06C64.428 53.141 66.5943 44.0748 67.8379 34.8483C68.56 29.2455 68.8943 24.8461 68.8542 21.6369C68.8007 19.4573 68.5734 17.5183 68.1589 15.8067C67.9449 14.9242 67.6908 14.1754 67.3833 13.5469C67.2228 13.2393 67.0222 12.8516 66.7548 12.3836L66.6746 12.3033C66.5676 12.1429 66.4472 11.969 66.2868 11.7551C65.4577 10.7656 65.2036 10.0435 65.5112 9.57547C65.7653 9.21443 66.5275 9.21443 67.7711 9.57547C70.5658 10.4045 72.9996 12.1161 75.0722 14.7103C77.9205 18.2404 79.3781 22.8002 79.4315 28.3897C79.4315 31.8663 79.017 36.4796 78.1879 42.2295C77.5193 47.0434 76.61 51.7904 75.4734 56.4572C75.3129 57.2328 75.1124 58.1153 74.8449 59.1048C77.5327 58.3292 80.5682 57.6607 83.9379 57.0857C88.2973 56.4171 93.2851 56.0293 98.9415 55.9223C98.5269 55.5613 98.1124 55.2002 97.6978 54.8392C95.1036 52.459 93.0443 49.6776 91.5199 46.5219C89.9955 43.3661 89.1531 40.1034 88.9926 36.7337C88.9926 36.3727 89.0996 36.1186 89.3002 35.9982C89.5007 35.8645 89.7816 35.8244 90.1159 35.8779C90.4502 35.9314 90.7978 36.0116 91.1589 36.1052C91.5199 36.2122 91.9077 36.3593 92.3223 36.5732C92.7368 36.7872 93.0577 36.9343 93.2984 37.0412C93.5257 37.1482 93.7531 37.2552 93.9537 37.3488C95.3978 38.1779 96.6949 39.1674 97.8449 40.304C98.9816 41.4406 99.5566 42.2964 99.5566 42.8714C99.6635 45.519 100.132 47.8992 100.961 50.0253C101.375 51.0683 101.923 52.1247 102.592 53.2078C102.592 53.2613 102.619 53.3148 102.672 53.3683C102.726 53.4753 102.779 53.5555 102.833 53.5956L103.221 54.2241C103.274 54.2776 103.368 54.3845 103.488 54.5316C103.622 54.6921 103.689 54.7857 103.689 54.8392C103.796 54.9462 103.876 55.0264 103.916 55.0665L104.143 55.227C104.344 55.334 104.504 55.4142 104.611 55.4543C104.772 55.5078 104.852 55.5345 104.879 55.5345C104.905 55.5345 104.959 55.5479 105.039 55.5746C105.119 55.6014 105.213 55.6281 105.307 55.6549C105.414 55.6816 105.494 55.695 105.534 55.695C105.587 55.695 105.668 55.7084 105.761 55.7351C105.868 55.7618 105.922 55.802 105.922 55.8555C106.029 55.8555 106.229 55.8822 106.55 55.9357C107.633 55.9357 109.318 55.9624 111.605 56.0159C112.273 56.0159 113.49 56.5107 115.255 57.4868C116.352 58.0886 117.435 58.8909 118.532 59.8804ZM104.143 55.2938L104.063 55.2136C104.116 55.2136 104.143 55.2404 104.143 55.2938ZM104.143 55.2136C104.197 55.2671 104.344 55.3473 104.611 55.4409C104.558 55.3874 104.477 55.3473 104.384 55.3206C104.277 55.3072 104.197 55.2671 104.143 55.2136Z" fill="#F33F3F"/>
<path d="M162.285 47.5916C161.924 60.2414 164.411 72.0755 169.747 83.1207C170.215 84.0567 170.028 84.5515 169.199 84.5916C168.369 84.6451 167.647 84.4846 167.019 84.1236C164.318 83.0404 162.098 81.4091 160.333 79.2295C159.811 78.6144 159.53 78.2667 159.477 78.2132C159.37 78.1062 159.29 77.9992 159.25 77.9056C159.196 77.9056 159.022 77.7719 158.742 77.5179C158.461 77.2638 158.193 77.0231 157.966 76.8225C157.739 76.6086 157.618 76.4615 157.618 76.3545L157.311 76.1272C157.257 76.1272 157.097 76.0202 156.843 75.8196C156.736 75.7127 156.629 75.6191 156.535 75.5121H156.455C156.455 75.4586 156.428 75.4319 156.375 75.4319L156.455 75.5121C156.147 75.258 155.853 75.0441 155.599 74.897L155.519 74.8167C155.465 74.7633 155.385 74.7098 155.292 74.6563C155.185 74.6028 155.091 74.5493 155.024 74.4958C154.944 74.4423 154.85 74.3888 154.757 74.3354C154.65 74.2819 154.543 74.2284 154.449 74.1749C154.342 74.1214 154.168 74.0412 153.901 73.9476C154.061 74.0011 154.235 74.0813 154.449 74.1749C154.342 74.1214 154.182 74.0278 153.941 73.9075C153.714 73.7738 153.54 73.6801 153.433 73.64C153.072 73.4796 152.684 73.3057 152.269 73.0918C152.162 73.0383 151.989 72.9581 151.721 72.8645L151.882 72.9447C151.628 72.7842 150.919 72.5302 149.782 72.1691C149.06 71.9151 148.258 71.6744 147.375 71.4738C147.375 71.4203 147.349 71.3936 147.295 71.3936C147.041 71.3401 146.854 71.3133 146.747 71.3133C146.386 71.2064 146.025 71.1261 145.664 71.086C144.059 70.7785 142.428 70.5378 140.769 70.3907C137.761 70.1901 134.632 70.4174 131.369 71.086C130.794 71.193 129.818 70.9255 128.414 70.3104C127.17 69.7354 125.793 68.8529 124.295 67.6628C123.573 67.0477 122.784 66.2053 121.928 65.1355C121.072 64.0791 121.086 63.4373 121.968 63.2367C127.772 62.1001 133.682 62.2338 139.686 63.6646C145.69 65.0954 151.347 67.5425 156.629 71.0058C155.8 68.7727 155.078 66.5262 154.449 64.2396C153.46 60.5089 152.737 56.6711 152.269 52.7398C148.325 53.1009 144.139 52.0445 139.673 49.5573C134.123 46.3481 130.085 42.3499 127.544 37.5895C126.087 34.9419 125.271 32.0669 125.097 28.9646C124.91 25.849 125.271 22.8805 126.14 20.0189C127.023 17.1707 128.373 14.4696 130.179 11.9289C130.433 11.5144 131.195 11.5144 132.439 11.9289C133.428 12.183 134.739 12.8917 136.397 14.0283C137.841 15.0178 138.964 16.0073 139.74 17.0236C140.515 18.0398 140.769 18.7486 140.515 19.1631C137.667 23.2549 136.036 27.3734 135.621 31.5187C135.207 35.4099 135.755 38.8465 137.253 41.8551C137.453 42.3231 137.694 42.7644 137.948 43.1789C138.001 43.1789 138.055 43.2324 138.108 43.3394C138.162 43.4464 138.215 43.54 138.269 43.6068C138.322 43.6871 138.362 43.7539 138.389 43.8074C138.416 43.8609 138.456 43.9144 138.51 43.9679L138.59 44.1283C138.75 44.2888 138.871 44.4091 138.978 44.5161L139.058 44.5964V44.6766C139.312 44.7301 139.472 44.7568 139.526 44.7568C139.218 44.6498 139.245 44.6498 139.606 44.7568C139.807 44.8103 139.94 44.837 139.994 44.837C140.408 44.944 140.823 44.9975 141.237 44.9975H141.465L141.853 45.0777C143.297 45.0777 144.835 44.7969 146.439 44.2219C148.619 43.4998 150.397 42.283 151.801 40.5714C152.216 30.9838 154.262 21.8374 157.939 13.1324C158.046 12.8783 158.247 12.7312 158.554 12.7045C158.862 12.6777 159.236 12.7446 159.678 12.905C160.119 13.0655 160.56 13.2393 161.001 13.4533C161.443 13.6672 161.911 13.9079 162.405 14.1887C162.9 14.4696 163.261 14.6969 163.489 14.844C163.716 15.0044 163.943 15.1248 164.144 15.2318C165.588 16.2213 166.711 17.2242 167.487 18.2672C168.209 19.2032 168.476 19.8985 168.262 20.3665C166.39 24.8194 164.946 29.3792 163.903 34.046C163.288 37.0546 162.847 40.1034 162.579 43.219C162.686 43.3795 162.767 43.4999 162.807 43.6068C163.582 44.5429 163.836 45.2382 163.582 45.7062C163.248 46.3213 162.807 46.9765 162.285 47.5916Z" fill="#F33F3F"/>
<path d="M215.145 12.9318C216.549 13.9213 217.659 14.9242 218.488 15.9672C219.21 16.9032 219.478 17.5986 219.264 18.0666C217.084 22.1049 215.279 26.2502 213.821 30.5024C213.153 32.5216 212.551 34.6209 212.029 36.8006C212.23 37.0546 212.444 37.2953 212.658 37.4959C213.487 38.5389 213.714 39.2342 213.353 39.5953C212.631 40.3708 211.802 41.2801 210.866 42.3098C210.237 46.0405 209.903 49.7713 209.85 53.502C209.743 58.1688 209.983 62.1536 210.545 65.4698C210.799 66.7134 211.093 67.7965 211.401 68.7325C211.762 68.893 212.123 69.0668 212.484 69.2808C213.928 70.1099 215.225 71.0994 216.375 72.236C217.512 73.4261 218.087 74.2819 218.087 74.8034C218.087 74.9104 218.087 75.0173 218.087 75.151C218.087 75.2848 218.087 75.4051 218.087 75.5388C218.087 75.6726 218.087 75.7795 218.087 75.8865C218.087 76.7156 217.311 76.9028 215.76 76.4347C212.029 75.2447 208.579 73.065 205.424 69.9093C203.351 67.7831 201.867 65.4565 200.997 62.9158C200.382 61.0972 199.914 59.0246 199.593 56.6979L198.818 57.9415C196.852 60.8966 195.007 63.9321 193.295 67.0343C193.081 67.4489 192.8 68.0506 192.439 68.8262C192.078 69.6017 191.757 70.2569 191.463 70.8052C191.182 71.3534 190.821 71.9284 190.42 72.5569C190.005 73.172 189.537 73.6935 189.016 74.108C188.494 74.5226 187.96 74.8569 187.385 75.1243C185.619 75.7394 183.266 75.1778 180.311 73.4127C177.101 71.5406 174.895 69.4947 173.705 67.275C173.397 66.7 173.13 66.0983 172.929 65.4431C172.715 64.8012 172.555 64.0791 172.421 63.3036C172.287 62.528 172.194 61.8862 172.154 61.4048C172.1 60.91 172.033 60.1612 171.953 59.1449C171.873 58.1287 171.806 57.5002 171.753 57.2461C170.348 42.0156 171.285 26.7182 174.547 11.3807C174.708 10.7121 175.564 10.7522 177.155 11.501C178.733 12.2498 179.936 12.9184 180.765 13.48C183.828 15.5527 185.192 17.2643 184.884 18.6148C183.279 26.1298 182.29 33.8053 181.929 41.6278C181.568 48.1533 181.648 54.7188 182.156 61.2978C187.13 51.8706 193.242 43.1388 200.503 35.1023C202 26.4507 204.782 18.3608 208.82 10.8458C209.074 10.4313 209.85 10.4313 211.147 10.8458C212.163 11.0865 213.487 11.7818 215.145 12.9318Z" fill="#F33F3F"/>
<path d="M288.063 3.98603C290.711 6.16565 291.767 7.69004 291.246 8.57258C288.491 13.4934 286.686 18.8823 285.803 24.7391C284.921 30.596 285.054 36.3459 286.191 42.0022C286.392 43.1388 285.202 43.0586 282.621 41.7749C282.206 41.5743 281.899 41.4139 281.685 41.3069C280.388 40.4778 279.197 39.4883 278.114 38.3517C277.178 37.3622 276.657 36.5064 276.563 35.7843C274.959 27.5472 275.32 19.4038 277.646 11.3807C277.593 11.3807 277.553 11.3807 277.526 11.3807C277.499 11.3807 277.459 11.3807 277.406 11.3807C271.91 12.3167 266.36 13.0923 260.771 13.7074C260.717 15.4724 260.637 18.1334 260.543 21.7171C260.129 33.0163 259.527 49.9585 258.752 72.5569C258.752 72.8645 258.658 73.1052 258.484 73.2522C258.297 73.4127 258.056 73.4528 257.749 73.4127C257.441 73.3592 257.12 73.279 256.813 73.1854C256.505 73.0784 256.157 72.9313 255.77 72.7174C255.382 72.5034 255.101 72.3563 254.914 72.2494C254.727 72.1424 254.539 72.022 254.325 71.8616C252.975 71.086 251.785 70.0965 250.755 68.9064C249.672 67.7698 249.124 66.914 249.124 66.339C249.177 64.7344 249.271 62.3141 249.391 59.0647C249.525 55.8287 249.605 53.4084 249.658 51.7904C250.233 34.9552 250.648 22.5328 250.902 14.5632C244.216 15.0847 237.503 15.3655 230.764 15.419C233.612 21.3828 234.601 27.6542 233.719 34.2332C233.505 35.5302 232.007 35.2895 229.213 33.5378C227.862 32.7623 226.672 31.7727 225.642 30.5826C224.506 29.3391 223.984 28.4833 224.091 28.0152C225.027 21.0753 223.931 14.7771 220.828 9.12082C220.775 9.06734 220.721 8.96037 220.668 8.81328C220.614 8.65281 220.588 8.49234 220.588 8.30515C220.588 8.11794 220.628 7.97085 220.708 7.83714C220.788 7.70342 220.922 7.63656 221.136 7.63656C225.696 7.58307 230.202 7.44935 234.655 7.24877C240.097 6.99471 245.62 6.58017 251.21 6.00519C251.21 5.4302 251.223 4.5744 251.25 3.43779C251.277 2.30118 251.317 1.47213 251.37 0.950621C251.37 0.589581 251.464 0.335512 251.638 0.215165C251.825 0.0814468 252.079 0.0413361 252.413 0.0948236C252.747 0.148311 253.055 0.215172 253.349 0.295403C253.63 0.375634 253.978 0.522723 254.406 0.763416C254.82 0.990738 255.101 1.16457 255.261 1.27155C255.422 1.37852 255.622 1.4855 255.89 1.57911C257.187 2.40816 258.35 3.39768 259.393 4.53428C259.554 4.69475 259.674 4.8151 259.781 4.92207C267.296 3.93255 274.785 2.64885 282.246 1.03085C282.768 0.923874 283.677 1.19132 284.961 1.80642C285.884 2.27444 286.913 3.00989 288.063 3.98603Z" fill="#F33F3F"/>
<path d="M315.57 75.0307C315.623 75.4987 315.436 75.7661 315.021 75.8464C314.607 75.9266 314.059 75.833 313.39 75.5789C312.721 75.3249 312.186 75.0976 311.799 74.9237C311.411 74.7365 311.036 74.5493 310.675 74.3354C309.218 73.5598 307.934 72.5836 306.784 71.4203C305.648 70.2569 305.073 69.3878 305.073 68.8128C304.966 66.5797 304.832 63.2233 304.645 58.7438C304.457 54.2642 304.324 50.9079 304.217 48.6748C304.163 48.4207 304.163 48.2335 304.217 48.1265L303.2 20.9148C302.986 21.0218 302.786 21.1421 302.572 21.2625C302.371 21.3962 302.184 21.5165 302.024 21.6502C301.863 21.784 301.689 21.9043 301.475 22.038C301.261 22.1717 301.061 22.3055 300.847 22.4659C300.432 22.7735 299.684 22.7735 298.587 22.4659C297.598 22.1584 296.287 21.4497 294.629 20.3665C293.171 19.377 292.061 18.3741 291.286 17.3311C290.403 16.1945 290.149 15.4591 290.51 15.1515C290.671 15.0445 290.791 14.9643 290.898 14.9242C292.449 13.8946 294.562 12.437 297.236 10.565C299.911 8.69292 302.345 7.00807 304.538 5.47031C306.744 3.94591 308.83 2.50176 310.796 1.1512C311.264 0.843644 312.013 0.843644 313.056 1.1512C314.085 1.45875 315.436 2.16746 317.094 3.25058C318.498 4.2401 319.608 5.24299 320.437 6.28599C321.32 7.4226 321.547 8.13131 321.132 8.38537C318.391 10.351 315.636 12.2766 312.895 14.1353C313.096 14.4428 313.203 14.737 313.203 14.9911C313.457 20.5939 313.805 28.978 314.219 40.1703C324.368 31.5187 332.953 21.931 339.947 11.4074C340.201 10.9929 340.963 10.9929 342.207 11.4074C343.237 11.6615 344.56 12.3702 346.165 13.5068C347.609 14.4963 348.759 15.4992 349.588 16.5422C350.364 17.5317 350.605 18.227 350.284 18.6416C345.149 26.4106 339.091 33.725 332.098 40.558C333.087 40.8656 334.036 41.2266 334.973 41.6412C337.099 42.5772 339.038 43.7004 340.803 45.0242C342.568 46.3481 344.119 47.9928 345.47 49.9585C346.82 51.9241 347.596 53.9968 347.796 56.1764C347.903 57.2194 347.823 60.0141 347.569 64.5739C347.516 65.5634 347.435 67.0611 347.342 69.0802C347.235 71.0994 347.155 72.597 347.114 73.5865L346.098 92.2403C346.098 92.4943 346.045 92.6949 345.938 92.8286C345.831 92.9624 345.67 93.0292 345.43 93.056C345.202 93.0827 344.962 93.0827 344.734 93.056C344.507 93.0292 344.226 92.9624 343.918 92.8554C343.611 92.7484 343.33 92.6414 343.103 92.5478C342.875 92.4408 342.595 92.3205 342.287 92.16C341.98 91.9996 341.766 91.906 341.672 91.8525C341.565 91.799 341.418 91.7188 341.204 91.6252C339.746 90.7961 338.463 89.8066 337.313 88.67C336.123 87.4799 335.548 86.5974 335.601 86.0224C335.708 84.0032 335.855 80.9411 336.069 76.8493C336.27 72.7575 336.43 69.6953 336.537 67.6762C336.591 66.5931 336.698 64.9483 336.845 62.742C337.005 60.5356 337.112 58.5699 337.192 56.8316C337.273 55.0933 337.313 53.4218 337.313 51.8171C337.313 50.5201 337.206 49.3835 337.005 48.394C336.898 47.9794 336.818 47.6719 336.778 47.4579H336.698H336.617C336.203 47.351 335.761 47.2975 335.293 47.2975C334.411 47.1905 333.582 47.1637 332.806 47.2172C330.787 47.3242 328.714 47.7387 326.588 48.4608C323.58 49.5038 319.648 51.6968 314.767 55.0665C315.008 59.7467 315.262 66.3791 315.57 75.0307ZM338.503 47.9794L338.423 47.8992H338.503V47.9794Z" fill="#F33F3F"/>
<path d="M384.837 67.7297C380.224 68.5052 375.075 66.3256 369.366 61.2042C366.41 58.5165 364.097 55.2671 362.412 51.4829C360.727 47.6986 359.831 43.7673 359.724 39.6621C359.617 34.0593 360.995 27.4135 363.843 19.6846C363.789 19.6846 363.669 19.698 363.495 19.7247C363.308 19.7514 363.201 19.7648 363.148 19.7648C361.382 19.9253 359.002 18.7753 355.993 16.3416C355.739 16.141 355.432 15.8736 355.098 15.566C354.763 15.2585 354.349 14.8172 353.854 14.2422C353.359 13.6672 353.118 13.1992 353.118 12.8382C353.118 12.4771 353.306 12.1963 353.667 11.9824C353.827 11.9289 354.001 11.862 354.215 11.7818C354.416 11.7016 354.576 11.6615 354.683 11.6615C355.044 11.501 355.512 11.5277 356.087 11.7417C369.874 10.4446 383.273 7.87723 396.27 4.03951C396.792 3.87905 397.795 4.14649 399.306 4.81508C400.295 5.2831 401.432 5.97843 402.729 6.91446C403.451 7.48945 403.999 7.91735 404.36 8.19816C404.721 8.47897 405.149 8.97373 405.644 9.66906C406.139 10.3644 406.299 11.0062 406.152 11.5679C403.772 23.6961 401.753 32.789 400.095 38.8464C397.394 48.6346 394.599 56.3368 391.697 61.9396C389.919 65.3495 387.632 67.2616 384.837 67.7297ZM377.135 59.4124C378.017 58.9978 378.9 58.249 379.782 57.1525C380.037 56.7915 380.304 56.4171 380.558 56.0293C380.812 55.6415 381.066 55.227 381.294 54.7857C381.521 54.3444 381.735 53.9433 381.922 53.5822C382.096 53.2212 382.296 52.7799 382.51 52.2584C382.711 51.7369 382.885 51.3224 383.018 51.0148C383.152 50.7073 383.326 50.266 383.567 49.691C383.794 49.116 383.968 48.7015 384.075 48.4474C387.592 39.8493 390.788 28.7106 393.636 15.0178C386.696 16.6224 379.649 17.866 372.495 18.7485C373.484 19.5241 374.287 20.2997 374.902 21.0753C375.624 22.0113 375.891 22.7334 375.677 23.2549C373.805 27.8682 372.401 32.0535 371.438 35.811C370.475 39.5685 370.128 43.3126 370.382 47.0434C370.582 50.5736 371.291 53.6491 372.481 56.2967C372.896 57.2328 373.337 58.1153 373.805 58.9444C374.006 59.3054 374.22 59.6129 374.434 59.8804L374.514 60.0408C374.621 60.0408 374.768 60.0408 374.982 60.0408C375.744 59.9339 376.466 59.7199 377.135 59.4124ZM375.503 61.3513L375.664 61.5117C375.61 61.4583 375.557 61.4048 375.503 61.3513Z" fill="#F33F3F"/>
<path d="M386.094 118.797C370.248 123.678 354.121 126.793 337.741 128.144C328.3 128.893 320.517 129.04 314.393 128.585C305.835 128.037 298.895 126.138 293.586 122.875C292.77 122.26 292.89 120.535 293.934 117.714C294.856 115.2 296.407 112.512 298.587 109.664C298.654 109.503 298.788 109.289 298.988 108.995C299.189 108.714 299.363 108.527 299.51 108.434C300.727 106.735 301.943 105.786 303.147 105.612C303.976 105.465 304.364 106.08 304.337 107.444L304.35 107.671C310.034 110.827 317.241 112.485 326 112.632C340.856 112.927 356.729 111.362 373.618 107.912C389.45 104.556 404.842 99.5948 419.778 93.0426C420.287 92.7751 420.634 92.8687 420.835 93.3501C421.022 93.8315 421.116 94.3397 421.076 94.8745C421.022 96.0914 420.46 97.8966 419.377 100.277C417.211 105.024 414.764 107.979 412.049 109.129C403.491 112.9 394.826 116.136 386.094 118.797Z" fill="#F33F3F"/>
</g>
<defs>
<clipPath id="clip0_1_3">
<rect width="422" height="129" fill="white"/>
</clipPath>
</defs>
</svg>
