<svg width="352" height="262" viewBox="0 0 352 262" fill="none" xmlns="http://www.w3.org/2000/svg">
<path d="M134.128 111.058C133.408 112.682 132.476 114.032 131.333 115.106C130.671 115.72 130.074 116.15 129.542 116.395C128.809 116.751 128.058 116.802 127.286 116.545C127.156 116.487 126.978 116.199 126.755 115.683C126.556 115.224 126.387 114.704 126.25 114.124C126.238 114.094 126.226 114.052 126.21 113.994C126.195 113.938 126.189 113.898 126.19 113.875C126.102 113.534 126.095 113.315 126.171 113.224C126.22 113.157 126.317 113.237 126.463 113.462L126.488 113.498C127.277 113.718 128.024 113.614 128.73 113.181C129.931 112.456 131.011 111.373 131.968 109.929C132.851 108.555 133.525 106.942 133.992 105.092C134.003 105.022 134.041 105.019 134.109 105.087C134.175 105.156 134.238 105.235 134.293 105.324C134.42 105.526 134.571 105.85 134.744 106.296C135.087 107.185 135.214 107.796 135.125 108.125C134.859 109.188 134.527 110.168 134.128 111.058Z" fill="#F33F3F"/>
<path d="M176.426 0.800414C174.826 3.40041 177.026 42.3004 179.026 46.0004C180.726 49.2004 182.626 46.4004 183.126 40.0004C183.826 33.2004 188.126 20.1004 190.626 17.6004C191.726 16.6004 192.926 16.2004 193.726 16.6004C195.426 17.7004 197.526 26.6004 198.826 38.2004C200.026 49.0004 200.326 49.8004 202.626 49.8004C203.926 49.8004 204.026 48.6004 203.426 41.6004C203.026 37.1004 202.326 32.1004 201.826 30.4004C201.326 28.7004 200.926 26.1004 200.926 24.6004C200.926 23.2004 200.026 20.0004 199.026 17.5004C195.426 9.20041 188.726 11.0004 183.626 21.6004C180.926 27.4004 180.326 25.9004 179.626 12.4004C179.026 1.90041 178.026 -1.79959 176.426 0.800414Z" fill="#F33F3F"/>
<path d="M117.726 17.4004C113.226 26.5004 111.826 27.8004 108.826 26.0004C106.326 24.4004 102.826 24.6004 100.526 26.3004C99.4257 27.1004 97.1257 27.8004 95.4257 27.8004C93.7257 27.8004 91.4257 28.5004 90.2257 29.3004C89.0257 30.2004 87.6257 30.7004 87.2257 30.6004C85.6257 30.0004 81.9257 33.6004 80.4257 37.1004C77.4257 44.4004 79.2257 50.9004 85.1257 53.9004C88.7257 55.8004 89.7257 55.8004 93.6257 54.8004C96.0257 54.1004 98.2257 53.1004 98.5257 52.7004C99.5257 51.1004 101.926 51.8004 101.926 53.7004C101.926 54.7004 100.826 58.1004 99.4257 61.3004C97.4257 65.7004 97.1257 67.3004 98.0257 68.4004C100.026 70.9004 102.526 68.2004 106.326 59.4004C108.326 54.8004 109.926 50.6004 109.926 50.2004C109.926 49.8004 111.326 46.3004 113.026 42.4004C114.826 38.5004 117.026 33.5004 117.926 31.3004C118.926 29.1004 121.326 23.8004 123.326 19.4004C126.126 13.3004 126.726 11.2004 125.826 10.2004C123.626 7.50042 122.026 8.90042 117.726 17.4004ZM104.426 30.0004C108.726 31.9004 107.726 35.6004 101.126 42.6004C94.8257 49.1004 91.3257 50.7004 87.3257 48.9004C85.4257 48.1004 84.9257 47.1004 84.9257 44.1004C84.9257 37.4004 90.0257 31.5004 97.2257 29.8004C101.726 28.7004 101.526 28.7004 104.426 30.0004Z" fill="#F33F3F"/>
<path d="M253.426 10.7004C253.126 11.2004 252.526 13.6004 252.026 16.0004C247.626 37.7004 247.526 38.3004 250.326 37.2004C252.226 36.5004 253.426 33.0004 255.926 21.4004C257.626 13.4004 257.726 11.3004 256.726 10.6004C255.026 9.6004 254.126 9.6004 253.426 10.7004Z" fill="#F33F3F"/>
<path d="M222.326 18.0004C217.726 22.3004 216.326 22.2004 215.726 17.8004C215.526 16.3004 214.626 15.2004 213.526 15.0004C211.726 14.6004 211.626 15.2004 212.326 29.4004C212.626 37.6004 213.426 44.7004 213.926 45.2004C215.626 46.9004 217.626 44.0004 218.226 39.0004C219.226 31.1004 221.826 24.2004 224.926 20.8004C227.326 18.2004 228.226 17.8004 229.326 18.7004C232.126 21.1004 233.126 29.0004 232.026 40.0004C230.926 50.8004 231.726 54.1004 234.326 50.6004C235.926 48.5004 237.226 32.0004 236.326 25.6004C235.626 20.7004 231.026 13.8004 228.326 13.8004C227.526 13.8004 224.826 15.7004 222.326 18.0004Z" fill="#F33F3F"/>
<path d="M90.9257 16.8004C89.0257 17.2004 86.3257 18.0004 84.9257 18.6004C81.9257 19.9004 77.0257 23.7004 78.3257 23.8004C78.8257 23.8004 80.0257 23.2004 80.8257 22.4004C83.2257 20.3004 91.4257 17.8004 96.0257 17.8004C98.4257 17.8004 99.8257 17.4004 99.4257 16.8004C98.7257 15.7004 96.1257 15.7004 90.9257 16.8004Z" fill="#F33F3F"/>
<path d="M152.326 18.3004C151.926 19.1004 152.426 26.2004 153.326 34.1004C154.226 41.9004 154.926 50.8004 154.926 53.9004C154.926 61.4004 155.926 65.8004 157.526 65.8004C158.426 65.8004 158.926 64.1004 159.126 60.5004C159.426 56.2004 159.726 55.3004 161.426 55.0004C164.326 54.6004 174.726 59.4004 179.726 63.5004C182.126 65.4004 184.626 66.7004 185.426 66.4004C189.026 65.1004 183.426 60.0004 171.926 54.2004C168.126 52.2004 164.926 50.0004 164.926 49.3004C164.926 48.6004 166.526 47.3004 168.526 46.3004C170.426 45.4004 172.226 44.1004 172.526 43.5004C172.726 42.8004 172.626 39.1004 172.226 35.3004C171.626 29.8004 171.026 28.3004 169.726 28.0004C168.126 27.7004 167.926 28.5004 167.926 35.0004V42.4004L164.326 44.0004C160.626 45.7004 157.726 45.4004 158.126 43.4004C158.526 41.1004 156.826 23.2004 155.826 20.0004C154.726 16.6004 153.226 15.8004 152.326 18.3004Z" fill="#F33F3F"/>
<path d="M142.126 29.7004C140.926 31.9004 139.326 32.9004 135.026 33.9004C125.026 36.3004 115.826 44.7004 117.426 49.8004C118.526 53.4004 125.326 57.5004 131.426 58.3004C136.926 58.9004 147.526 57.3004 148.526 55.6004C149.826 53.6004 147.526 53.2004 142.226 54.4004C137.926 55.4004 135.026 55.5004 130.926 54.8004C119.526 52.7004 120.526 48.0004 132.626 47.7004C136.526 47.6004 140.326 47.2004 140.926 46.8004C141.726 46.3004 145.926 29.9004 145.926 27.1004C145.926 25.7004 143.526 27.3004 142.126 29.7004ZM139.326 38.3004C139.626 39.1004 139.526 40.7004 139.126 41.9004C138.426 43.6004 137.326 44.0004 131.526 44.2004C127.826 44.3004 124.626 44.1004 124.426 43.8004C123.626 42.5004 125.826 40.6004 130.526 38.9004C136.626 36.5004 138.526 36.4004 139.326 38.3004Z" fill="#F33F3F"/>
<path d="M281.926 28.6004C281.926 30.7004 286.126 42.8004 290.826 54.3004C294.026 62.4004 296.226 66.4004 297.426 66.6004C298.926 66.9004 299.026 66.4004 298.526 63.1004C296.226 46.8004 297.126 36.8004 301.126 36.8004C302.626 36.8004 304.526 39.9004 309.526 50.4004C313.526 58.9004 316.426 63.8004 317.226 63.5004C318.726 62.9004 318.426 61.9004 315.226 54.8004C313.826 51.8004 311.826 47.3004 310.626 44.8004C307.226 37.2004 304.226 33.8004 300.926 33.8004C297.626 33.8004 295.626 36.7004 294.426 43.1004C293.226 49.5004 291.926 48.3004 287.426 36.4004C285.826 32.0004 283.826 28.3004 283.226 28.0004C282.526 27.8004 281.926 28.1004 281.926 28.6004Z" fill="#F33F3F"/>
<path d="M278.426 48.0004C277.626 49.9004 276.426 50.4004 270.926 50.9004C263.626 51.6004 258.926 53.9004 256.526 57.9004C254.126 62.0004 254.526 64.6004 258.226 68.3004C264.426 74.5004 276.226 75.5004 283.926 70.4004C288.026 67.7004 289.726 65.3004 288.526 64.1004C288.226 63.7004 286.926 64.4004 285.626 65.5004C281.726 69.1004 278.726 70.1004 272.026 69.9004C264.326 69.7004 259.926 67.5004 258.826 63.6004C258.326 61.6004 258.626 60.2004 260.026 58.4004C262.926 54.7004 275.926 52.2004 278.626 54.9004C280.526 56.8004 281.626 55.1004 281.526 50.7004C281.426 45.9004 279.926 44.7004 278.426 48.0004Z" fill="#F33F3F"/>
<path d="M244.626 47.5004C243.326 48.7004 243.926 49.8004 245.926 49.8004C247.026 49.8004 247.926 49.1004 247.926 48.3004C247.926 46.8004 245.826 46.2004 244.626 47.5004Z" fill="#F33F3F"/>
<path d="M328.626 59.8004C327.226 61.4004 325.826 64.2004 325.426 66.0004C325.026 67.8004 324.426 69.7004 324.126 70.3004C323.726 70.8004 323.426 72.0004 323.426 72.8004C323.426 73.8004 321.826 74.5004 318.126 75.0004C311.226 76.0004 296.726 80.9004 288.826 84.8004C277.826 90.2004 269.426 97.8004 263.826 107.3C260.726 112.6 260.726 122.8 263.826 128.6C268.026 136.2 275.526 141.4 288.426 145.6C294.826 147.7 321.026 147.9 328.426 146C341.126 142.6 347.326 140.4 349.526 138.5C352.726 135.7 352.726 131.4 349.426 129.2C347.026 127.7 346.326 127.7 337.126 130.3C323.126 134.1 315.926 135.1 303.426 134.5C293.926 134.1 291.526 133.7 285.826 131.1C282.126 129.4 278.826 127.5 278.426 126.9C276.426 123.6 287.126 120 302.426 118.7C327.926 116.6 327.026 116.8 329.926 113.9C332.426 111.4 332.726 110.3 333.426 100.3C334.126 89.4004 336.726 73.2004 339.126 65.1004C340.226 61.4004 340.126 60.7004 338.426 58.8004C335.726 55.8004 331.626 56.2004 328.626 59.8004ZM320.426 90.1004C320.826 91.4004 320.726 95.1004 320.226 98.4004L319.426 104.3L307.926 105C297.326 105.7 294.226 106.2 283.726 108.7C279.326 109.7 278.526 108 282.026 105C283.226 104.1 284.726 102.8 285.426 102.1C289.326 98.4004 303.026 91.9004 312.626 89.3004C319.326 87.5004 319.826 87.5004 320.426 90.1004Z" fill="#F33F3F"/>
<path d="M234.726 62.4004C230.326 64.7004 226.226 71.7004 220.626 86.3004C219.726 88.5004 218.726 91.3004 218.426 92.6004C217.226 96.7004 214.826 94.7004 212.726 87.8004C210.226 79.9004 207.826 76.3004 203.526 74.3004C197.626 71.5004 193.126 74.8004 187.926 86.0004C186.126 89.8004 184.326 92.8004 183.926 92.8004C183.426 92.8004 182.426 90.0004 181.626 86.5004C179.626 77.8004 177.926 74.5004 174.626 73.4004C172.326 72.6004 171.526 72.8004 169.726 74.5004C167.226 77.1004 167.226 78.5004 169.326 93.3004C170.226 99.3004 172.026 113.1 173.426 123.8C176.826 150.3 176.826 150.4 178.926 152.8C179.926 153.9 182.326 155.2 184.226 155.5C190.126 156.4 191.026 153.9 192.026 133.1C192.826 115 193.326 111.8 196.326 101.6C198.826 93.3004 201.526 92.6004 202.426 99.9004C202.726 101.8 203.126 104.4 203.426 105.8C203.726 107.2 204.626 113.7 205.426 120.3C207.426 135.4 208.926 143.7 210.226 146.5C211.026 148.4 212.126 148.8 215.526 148.8C219.226 148.8 220.126 148.4 221.326 146C222.026 144.5 223.026 140.4 223.426 136.8C224.126 129.3 226.526 114.5 228.026 107.3C229.526 100 235.026 83.5004 236.526 81.9004C239.426 78.7004 239.726 80.3004 241.926 108.8C244.926 146.4 246.926 168.4 249.826 196C251.026 206.6 250.626 209.3 248.026 208.2C243.626 206.4 242.926 206.7 236.126 213.7C231.826 218 228.326 220.8 227.026 220.8C225.826 220.8 224.926 221.2 224.926 221.7C224.926 223.9 213.926 225.8 201.726 225.8C188.526 225.8 180.826 224.3 175.726 220.7C174.326 219.6 172.726 218.8 172.226 218.8C170.326 218.8 164.026 211.5 163.426 208.7C160.926 197.4 170.126 188.8 189.026 184.8C192.226 184.1 199.026 183.7 205.026 184C214.026 184.3 215.826 184.7 218.626 186.7C221.126 188.6 222.526 188.9 225.226 188.4C227.126 188 229.026 187 229.426 186C229.826 185.1 230.426 179.8 230.626 174.3C231.326 161.3 229.726 156.8 224.626 156.8C220.126 156.8 217.626 159.7 216.926 165.6L216.426 170.3L202.426 170.4C191.026 170.5 187.126 171 181.426 172.8C167.726 177.1 158.126 183.8 152.326 193C148.726 198.7 148.526 209.3 151.826 215.7C159.226 230 179.026 239.8 200.526 239.8C211.026 239.8 219.126 238.5 226.926 235.5C233.126 233.1 242.226 227.3 245.826 223.4C250.826 218.1 251.626 219.9 251.826 237.7C252.126 254.9 254.226 260.2 260.426 259.1C265.426 258.1 266.226 255.9 266.026 242.8C265.826 232.8 266.126 230.7 267.426 230.2C269.326 229.4 286.026 235.8 295.926 241C304.726 245.7 314.826 252.7 320.426 258C325.526 262.9 329.126 263.1 331.926 258.6L333.826 255.4L331.426 251.5C330.226 249.3 326.526 245.5 323.326 243C320.026 240.5 317.326 238.1 317.126 237.6C316.926 237.2 316.326 236.8 315.726 236.8C315.126 236.8 311.926 235.1 308.526 233.1C300.126 227.9 287.626 222 280.726 219.8C274.526 217.9 275.826 215.9 286.526 210.8C297.126 205.8 299.326 203.4 299.126 197.3C299.026 192.6 297.026 170.8 296.326 166.1C295.426 160.2 288.826 158.7 284.826 163.4C283.526 165 283.426 166.9 284.126 176.8C284.526 183.1 285.026 190.3 285.226 192.8L285.426 197.2L275.526 201.5C268.126 204.7 265.326 205.5 264.826 204.6C264.426 203.9 263.726 200.4 263.426 196.8C263.126 193.2 262.426 186.2 261.926 181.3C261.426 176.3 260.726 169.8 260.526 166.8C260.226 163.8 259.326 155.4 258.526 148.3C257.726 141.1 256.826 130.1 256.426 123.8C256.126 117.5 255.226 106 254.426 98.3004C251.626 71.7004 250.026 66.1004 244.626 62.8004C240.826 60.5004 238.426 60.3004 234.726 62.4004Z" fill="#F33F3F"/>
<path d="M71.8257 63.7004C70.2257 65.0004 69.4257 67.0004 69.0257 70.4004L68.4257 75.3004L52.9257 75.9004C35.8257 76.7004 33.9257 77.1004 23.5257 82.3004C5.4257 91.5004 -1.5743 106 5.4257 120C10.1257 129.5 18.6257 135.9 33.4257 140.8C39.2257 142.8 42.5257 143.2 52.4257 143.2C63.2257 143.2 76.6257 141.4 77.9257 139.9C78.2257 139.5 80.4257 138.4 82.9257 137.3C85.4257 136.2 89.3257 133.8 91.6257 132C94.0257 130.3 96.5257 128.8 97.2257 128.8C97.8257 128.8 99.4257 130.3 100.626 132.2C107.626 143.1 132.726 144.8 150.226 135.5C156.126 132.4 163.526 125.7 164.526 122.5C164.826 121.6 165.426 120.8 165.826 120.8C166.226 120.8 166.626 120.2 166.726 119.5C166.826 118.9 167.126 116.2 167.526 113.6C168.326 107.6 165.726 99.9004 160.926 94.7004C159.026 92.6004 152.526 87.5004 146.526 83.5004C140.026 79.2004 134.826 75.0004 133.926 73.3004C131.926 69.8004 128.326 68.2004 124.326 69.2004C120.526 70.2004 106.026 84.9004 102.126 91.7004C99.4257 96.5004 98.3257 99.8004 96.3257 109.5C96.1257 110.8 95.4257 111.8 94.7257 111.8C94.1257 111.8 90.9257 114.6 87.5257 118C78.5257 127.2 72.7257 129.2 54.5257 129.6C39.9257 130 39.4257 129.9 28.2257 124.6C13.0257 117.4 11.7257 105.4 25.1257 96.2004C32.8257 90.9004 39.5257 89.4004 54.5257 89.3004C65.6257 89.3004 67.8257 89.6004 69.3257 91.0004C71.7257 93.4004 75.6257 94.3004 78.3257 93.0004C81.2257 91.7004 81.9257 88.4004 81.9257 75.7004C81.9257 67.1004 81.6257 65.5004 79.9257 63.8004C77.4257 61.3004 74.8257 61.3004 71.8257 63.7004ZM128.426 86.9004C130.626 88.1004 133.826 90.1004 135.426 91.4004C140.026 95.1004 140.226 95.2004 143.926 97.5004C150.226 101.4 153.826 106 154.526 110.9C155.126 115.3 155.026 115.5 150.626 119.4C144.826 124.5 136.426 127.6 126.326 128.3C113.826 129.3 108.926 125.9 108.926 116.3C108.926 111.2 112.526 99.6004 115.626 94.8004C117.826 91.4004 123.326 84.8004 123.926 84.8004C124.226 84.8004 126.226 85.8004 128.426 86.9004Z" fill="#F33F3F"/>
<path d="M2.12569 134.1C-0.674305 137 -0.674305 139.3 1.92569 167.5C2.92569 179.5 4.32569 196.9 4.92569 206.3C7.22569 243.3 7.42569 245.5 9.72569 248C11.8257 250.5 15.6257 250.2 19.1257 247.3C21.7257 245.1 22.6257 244.9 26.2257 245.6C28.5257 246 35.6257 246.3 41.9257 246.2C52.7257 246.2 53.8257 246 60.1257 243C72.4257 237.1 78.9257 226.2 78.9257 211.8C78.8257 197.7 73.7257 183.9 65.2257 175.4C58.3257 168.3 53.9257 166.5 45.9257 167C37.6257 167.6 33.5257 170.1 24.7257 179.8C19.3257 185.7 18.0257 186.7 17.5257 185.2C17.2257 184.1 16.1257 173.6 14.9257 161.7C12.7257 137.8 11.8257 134.1 8.22569 132.7C4.82569 131.4 4.52569 131.5 2.12569 134.1ZM56.7257 185.5C62.6257 192.4 64.2257 197.1 64.6257 209.3C65.0257 219.6 64.9257 220.5 62.7257 223.8C59.8257 228.1 54.9257 231.4 49.5257 232.9C44.1257 234.4 29.0257 233.4 25.0257 231.3C22.4257 230 21.9257 229.2 21.9257 226C21.9257 224 22.3257 220.7 22.8257 218.8C23.4257 216.9 24.0257 213.9 24.3257 212.3C25.0257 207.7 30.0257 194.7 32.5257 190.8C39.5257 179.6 49.7257 177.3 56.7257 185.5Z" fill="#F33F3F"/>
<path d="M45.5257 155.7C45.2257 156.1 47.6257 156.8 50.7257 157.1C60.3257 157.9 67.2257 162 73.4257 170.4C74.1257 171.5 75.0257 172 75.3257 171.7C76.4257 170.6 67.8257 161.8 63.6257 159.7C55.9257 155.7 46.7257 153.7 45.5257 155.7Z" fill="#F33F3F"/>
<path d="M134.426 156.2C133.326 157 131.526 160.5 130.426 164L128.426 170.3H120.426C113.326 170.4 111.626 170.8 106.026 173.6C97.7257 177.9 91.8257 184.2 87.2257 193.5C82.8257 202.4 82.9257 202 82.2257 212.3C81.3257 226.1 85.2257 234.9 94.2257 239.2C99.0257 241.4 104.326 241.2 109.826 238.5C115.226 235.9 123.526 227.8 126.426 222.5C127.526 220.5 129.126 218.8 129.926 218.8C131.326 218.8 131.726 221.2 132.726 233C134.126 248.7 135.226 251.8 139.726 251.8C146.826 251.7 147.226 249.8 145.426 222.2C144.626 209.1 144.126 189.6 144.226 178.7C144.426 160.6 144.226 158.8 142.526 156.9C140.326 154.5 137.126 154.2 134.426 156.2ZM124.926 187.4C124.926 188.7 123.526 193.9 121.826 199C114.826 220.2 104.726 231.7 98.4257 225.8C93.9257 221.6 94.8257 207.6 100.326 197.2C104.826 188.7 109.226 185.2 117.126 184C123.126 183.1 124.926 183.9 124.926 187.4Z" fill="#F33F3F"/>
<ellipse cx="136" cy="100.5" rx="2" ry="2.5" transform="rotate(-21.9686 136 100.5)" fill="#F33F3F"/>
<ellipse cx="122.79" cy="104.067" rx="2" ry="2.5" transform="rotate(-21.9686 122.79 104.067)" fill="#F33F3F"/>
</svg>
